<?xml version="1.0" standalone="no"?>
<!DOCTYPE svg PUBLIC "-//W3C//DTD SVG 20010904//EN"
 "http://www.w3.org/TR/2001/REC-SVG-20010904/DTD/svg10.dtd">
<svg version="1.0" xmlns="http://www.w3.org/2000/svg"
 width="400.000000pt" height="200.000000pt" viewBox="0 0 400.000000 200.000000"
 preserveAspectRatio="xMidYMid meet">

<g transform="translate(0.000000,200.000000) scale(0.100000,-0.100000)"
fill="#000000" stroke="none">
<path d="M1133 1951 c-79 -20 -153 -87 -182 -164 -17 -45 -13 -147 8 -192 10
-22 36 -57 57 -77 163 -156 429 -39 427 187 -1 33 -6 73 -12 89 -43 109 -187
185 -298 157z m137 -101 c61 -31 85 -73 85 -150 0 -56 -4 -70 -28 -102 -62
-81 -176 -90 -251 -20 -59 56 -71 130 -33 203 43 82 143 112 227 69z"/>
<path d="M2735 1943 c-62 -23 -86 -39 -125 -87 -73 -92 -68 -236 11 -321 55
-59 113 -85 191 -85 79 0 130 23 184 82 48 52 68 103 67 173 -2 169 -173 293
-328 238z m121 -78 c80 -23 124 -83 124 -166 0 -168 -221 -233 -311 -91 -64
102 -22 215 97 257 21 8 39 14 40 15 0 0 23 -7 50 -15z"/>
<path d="M1925 1786 c-92 -29 -158 -87 -199 -175 -32 -69 -29 -189 6 -256 31
-60 86 -114 148 -146 65 -34 194 -34 264 0 60 30 110 80 144 146 23 43 27 63
27 135 0 73 -4 92 -27 135 -15 28 -35 59 -45 70 -76 86 -211 125 -318 91z
m139 -77 c156 -43 222 -216 132 -346 -57 -84 -162 -119 -256 -88 -108 36 -176
152 -151 257 19 86 76 149 154 174 53 16 72 17 121 3z"/>
<path d="M1110 1399 c-165 -24 -305 -120 -385 -264 -53 -94 -65 -167 -65 -402
0 -190 1 -203 19 -213 13 -6 141 -10 350 -10 l330 0 3 -225 c2 -188 6 -227 18
-235 9 -6 263 -10 637 -10 552 0 623 2 637 16 14 13 16 49 16 235 l0 219 316
0 c198 0 322 4 335 10 18 10 19 23 19 220 0 231 -8 285 -53 377 -138 280 -506
374 -771 198 -58 -38 -128 -110 -152 -157 -13 -25 -16 -26 -74 -21 l-60 6 -57
-119 -58 -119 -3 87 c-2 77 -5 89 -29 112 -26 26 -78 35 -118 20 -29 -12 -45
-60 -45 -140 0 -43 -3 -74 -7 -70 -4 4 -29 53 -55 109 -54 117 -68 127 -148
111 l-49 -10 -37 52 c-114 167 -314 253 -514 223z m182 -90 c78 -16 163 -65
219 -127 73 -80 75 -86 35 -111 -51 -32 -109 -100 -142 -166 -25 -52 -29 -73
-32 -160 -4 -162 21 -145 -217 -145 l-205 0 0 200 0 200 -25 6 c-54 14 -55 11
-55 -206 l0 -200 -65 0 -65 0 0 154 c0 84 5 177 10 207 32 165 156 300 319
344 59 17 155 18 223 4z m1643 -4 c73 -19 161 -72 210 -126 20 -23 54 -76 74
-118 l36 -76 3 -192 4 -193 -61 0 -61 0 0 186 c0 109 -4 193 -10 205 -12 21
-50 25 -68 7 -9 -9 -12 -68 -12 -205 l0 -192 -180 -3 c-99 -2 -185 -1 -190 0
-6 2 -10 41 -10 86 0 176 -62 303 -192 391 l-48 32 28 39 c102 141 297 206
477 159z m-1135 -357 c201 -424 186 -398 223 -398 17 0 97 154 227 438 18 39
34 72 35 72 1 0 25 -7 55 -16 95 -28 164 -85 212 -177 22 -41 23 -51 26 -389
l3 -348 -43 -1 c-24 0 -62 -1 -85 -3 l-43 -2 0 244 c0 250 -4 282 -40 282 -47
0 -50 -15 -50 -278 l0 -247 -283 2 c-155 1 -292 2 -304 3 l-23 0 0 255 0 255
-25 6 c-53 13 -55 3 -55 -267 l0 -248 -90 -3 -90 -3 0 332 c0 310 1 336 20
387 25 66 88 139 144 168 35 18 107 45 127 47 3 1 30 -50 59 -111z m228 -68
c-2 -105 -7 -170 -13 -170 -6 0 -11 65 -13 170 -2 148 0 170 13 170 13 0 15
-22 13 -170z"/>
<path d="M1984 506 c-3 -8 -4 -31 -2 -52 3 -36 5 -39 33 -39 37 0 55 39 37 80
-13 28 -59 35 -68 11z"/>
<path d="M1991 376 c-7 -8 -11 -32 -9 -53 3 -35 5 -38 33 -38 23 0 32 6 38 25
19 54 -30 105 -62 66z"/>
<path d="M1991 251 c-8 -5 -14 -25 -14 -46 0 -59 58 -76 77 -23 18 52 -21 95
-63 69z"/>
</g>
</svg>
